<?xml version="1.0"?>
<svg xmlns="http://www.w3.org/2000/svg" id="Layer" enable-background="new 0 0 64 64" height="512px" viewBox="0 0 64 64" width="512px"><g><g fill="#012e52"><path d="m26.586 34.586-14.586 14.586v-5.172c0-1.104-.896-2-2-2s-2 .896-2 2v10c0 1.104.896 2 2 2h10c1.104 0 2-.896 2-2s-.896-2-2-2h-5.172l14.586-14.586c.781-.781.781-2.047 0-2.828-.78-.781-2.048-.781-2.828 0z" data-original="#012E52" class="active-path" data-old_color="#012E52" fill="#C9C9C9"/><path d="m54 8h-10c-1.104 0-2 .896-2 2s.896 2 2 2h5.172l-14.586 14.586c-.781.781-.781 2.047 0 2.828.39.391.902.586 1.414.586s1.024-.195 1.414-.586l14.586-14.586v5.172c0 1.104.896 2 2 2s2-.896 2-2v-10c0-1.104-.896-2-2-2z" data-original="#012E52" class="active-path" data-old_color="#012E52" fill="#C9C9C9"/></g></g> </svg>
